<mxfile host="app.diagrams.net" agent="Mozilla/5.0 (Windows NT 10.0; Win64; x64) AppleWebKit/537.36 (KHTML, like Gecko) Chrome/129.0.0.0 Safari/537.36" version="24.7.17">
  <diagram name="Page-1" id="2FFD3u_KHKUIrxKHSx97">
    <mxGraphModel dx="457" dy="242" grid="1" gridSize="2" guides="1" tooltips="1" connect="1" arrows="1" fold="1" page="1" pageScale="1" pageWidth="850" pageHeight="1100" background="none" math="1" shadow="0">
      <root>
        <mxCell id="0" />
        <mxCell id="1" parent="0" />
        <mxCell id="3f9o9FAvJz_zB1DB4lKE-58" style="edgeStyle=orthogonalEdgeStyle;rounded=0;orthogonalLoop=1;jettySize=auto;html=1;exitX=1;exitY=0.5;exitDx=0;exitDy=0;endArrow=none;endFill=0;" edge="1" parent="1" source="3f9o9FAvJz_zB1DB4lKE-1">
          <mxGeometry relative="1" as="geometry">
            <mxPoint x="360" y="140.0344827586207" as="targetPoint" />
          </mxGeometry>
        </mxCell>
        <mxCell id="3f9o9FAvJz_zB1DB4lKE-1" value="&lt;font style=&quot;font-size: 8px;&quot;&gt;Motor&lt;/font&gt;" style="rounded=0;whiteSpace=wrap;html=1;" vertex="1" parent="1">
          <mxGeometry x="240" y="120" width="64" height="40" as="geometry" />
        </mxCell>
        <mxCell id="3f9o9FAvJz_zB1DB4lKE-29" value="" style="endArrow=none;html=1;rounded=0;" edge="1" parent="1">
          <mxGeometry width="50" height="50" relative="1" as="geometry">
            <mxPoint x="360" y="160" as="sourcePoint" />
            <mxPoint x="360" y="120" as="targetPoint" />
          </mxGeometry>
        </mxCell>
        <mxCell id="3f9o9FAvJz_zB1DB4lKE-30" value="" style="endArrow=none;html=1;rounded=0;" edge="1" parent="1">
          <mxGeometry width="50" height="50" relative="1" as="geometry">
            <mxPoint x="370" y="160" as="sourcePoint" />
            <mxPoint x="370" y="120" as="targetPoint" />
          </mxGeometry>
        </mxCell>
        <mxCell id="3f9o9FAvJz_zB1DB4lKE-31" value="" style="endArrow=none;html=1;rounded=0;" edge="1" parent="1">
          <mxGeometry width="50" height="50" relative="1" as="geometry">
            <mxPoint x="370" y="160" as="sourcePoint" />
            <mxPoint x="360" y="160" as="targetPoint" />
          </mxGeometry>
        </mxCell>
        <mxCell id="3f9o9FAvJz_zB1DB4lKE-32" value="" style="endArrow=none;html=1;rounded=0;" edge="1" parent="1">
          <mxGeometry width="50" height="50" relative="1" as="geometry">
            <mxPoint x="370" y="120" as="sourcePoint" />
            <mxPoint x="360" y="120" as="targetPoint" />
          </mxGeometry>
        </mxCell>
        <mxCell id="3f9o9FAvJz_zB1DB4lKE-33" value="" style="endArrow=none;html=1;rounded=0;" edge="1" parent="1">
          <mxGeometry width="50" height="50" relative="1" as="geometry">
            <mxPoint x="360" y="132" as="sourcePoint" />
            <mxPoint x="370" y="132" as="targetPoint" />
          </mxGeometry>
        </mxCell>
        <mxCell id="3f9o9FAvJz_zB1DB4lKE-34" value="" style="endArrow=none;html=1;rounded=0;" edge="1" parent="1">
          <mxGeometry width="50" height="50" relative="1" as="geometry">
            <mxPoint x="360" y="156" as="sourcePoint" />
            <mxPoint x="370" y="156" as="targetPoint" />
          </mxGeometry>
        </mxCell>
        <mxCell id="3f9o9FAvJz_zB1DB4lKE-35" value="" style="endArrow=none;html=1;rounded=0;" edge="1" parent="1">
          <mxGeometry width="50" height="50" relative="1" as="geometry">
            <mxPoint x="360" y="124" as="sourcePoint" />
            <mxPoint x="370" y="124" as="targetPoint" />
          </mxGeometry>
        </mxCell>
        <mxCell id="3f9o9FAvJz_zB1DB4lKE-36" value="" style="endArrow=none;html=1;rounded=0;" edge="1" parent="1">
          <mxGeometry width="50" height="50" relative="1" as="geometry">
            <mxPoint x="360" y="208" as="sourcePoint" />
            <mxPoint x="360" y="168" as="targetPoint" />
          </mxGeometry>
        </mxCell>
        <mxCell id="3f9o9FAvJz_zB1DB4lKE-37" value="" style="endArrow=none;html=1;rounded=0;" edge="1" parent="1">
          <mxGeometry width="50" height="50" relative="1" as="geometry">
            <mxPoint x="370" y="208" as="sourcePoint" />
            <mxPoint x="370" y="168" as="targetPoint" />
          </mxGeometry>
        </mxCell>
        <mxCell id="3f9o9FAvJz_zB1DB4lKE-38" value="" style="endArrow=none;html=1;rounded=0;" edge="1" parent="1">
          <mxGeometry width="50" height="50" relative="1" as="geometry">
            <mxPoint x="370" y="208" as="sourcePoint" />
            <mxPoint x="360" y="208" as="targetPoint" />
          </mxGeometry>
        </mxCell>
        <mxCell id="3f9o9FAvJz_zB1DB4lKE-39" value="" style="endArrow=none;html=1;rounded=0;" edge="1" parent="1">
          <mxGeometry width="50" height="50" relative="1" as="geometry">
            <mxPoint x="370" y="168" as="sourcePoint" />
            <mxPoint x="360" y="168" as="targetPoint" />
          </mxGeometry>
        </mxCell>
        <mxCell id="3f9o9FAvJz_zB1DB4lKE-40" value="" style="endArrow=none;html=1;rounded=0;" edge="1" parent="1">
          <mxGeometry width="50" height="50" relative="1" as="geometry">
            <mxPoint x="360" y="180" as="sourcePoint" />
            <mxPoint x="370" y="180" as="targetPoint" />
          </mxGeometry>
        </mxCell>
        <mxCell id="3f9o9FAvJz_zB1DB4lKE-41" value="" style="endArrow=none;html=1;rounded=0;" edge="1" parent="1">
          <mxGeometry width="50" height="50" relative="1" as="geometry">
            <mxPoint x="360" y="204" as="sourcePoint" />
            <mxPoint x="370" y="204" as="targetPoint" />
          </mxGeometry>
        </mxCell>
        <mxCell id="3f9o9FAvJz_zB1DB4lKE-42" value="" style="endArrow=none;html=1;rounded=0;" edge="1" parent="1">
          <mxGeometry width="50" height="50" relative="1" as="geometry">
            <mxPoint x="360" y="172" as="sourcePoint" />
            <mxPoint x="370" y="172" as="targetPoint" />
          </mxGeometry>
        </mxCell>
        <mxCell id="3f9o9FAvJz_zB1DB4lKE-43" value="" style="endArrow=none;html=1;rounded=0;" edge="1" parent="1">
          <mxGeometry width="50" height="50" relative="1" as="geometry">
            <mxPoint x="378" y="208" as="sourcePoint" />
            <mxPoint x="378" y="168" as="targetPoint" />
          </mxGeometry>
        </mxCell>
        <mxCell id="3f9o9FAvJz_zB1DB4lKE-44" value="" style="endArrow=none;html=1;rounded=0;" edge="1" parent="1">
          <mxGeometry width="50" height="50" relative="1" as="geometry">
            <mxPoint x="388" y="208" as="sourcePoint" />
            <mxPoint x="388" y="168" as="targetPoint" />
          </mxGeometry>
        </mxCell>
        <mxCell id="3f9o9FAvJz_zB1DB4lKE-45" value="" style="endArrow=none;html=1;rounded=0;" edge="1" parent="1">
          <mxGeometry width="50" height="50" relative="1" as="geometry">
            <mxPoint x="388" y="208" as="sourcePoint" />
            <mxPoint x="378" y="208" as="targetPoint" />
          </mxGeometry>
        </mxCell>
        <mxCell id="3f9o9FAvJz_zB1DB4lKE-46" value="" style="endArrow=none;html=1;rounded=0;" edge="1" parent="1">
          <mxGeometry width="50" height="50" relative="1" as="geometry">
            <mxPoint x="388" y="168" as="sourcePoint" />
            <mxPoint x="378" y="168" as="targetPoint" />
          </mxGeometry>
        </mxCell>
        <mxCell id="3f9o9FAvJz_zB1DB4lKE-47" value="" style="endArrow=none;html=1;rounded=0;" edge="1" parent="1">
          <mxGeometry width="50" height="50" relative="1" as="geometry">
            <mxPoint x="378" y="180" as="sourcePoint" />
            <mxPoint x="388" y="180" as="targetPoint" />
          </mxGeometry>
        </mxCell>
        <mxCell id="3f9o9FAvJz_zB1DB4lKE-48" value="" style="endArrow=none;html=1;rounded=0;" edge="1" parent="1">
          <mxGeometry width="50" height="50" relative="1" as="geometry">
            <mxPoint x="378" y="204" as="sourcePoint" />
            <mxPoint x="388" y="204" as="targetPoint" />
          </mxGeometry>
        </mxCell>
        <mxCell id="3f9o9FAvJz_zB1DB4lKE-49" value="" style="endArrow=none;html=1;rounded=0;" edge="1" parent="1">
          <mxGeometry width="50" height="50" relative="1" as="geometry">
            <mxPoint x="378" y="172" as="sourcePoint" />
            <mxPoint x="388" y="172" as="targetPoint" />
          </mxGeometry>
        </mxCell>
        <mxCell id="3f9o9FAvJz_zB1DB4lKE-57" value="" style="endArrow=none;html=1;rounded=0;" edge="1" parent="1">
          <mxGeometry width="50" height="50" relative="1" as="geometry">
            <mxPoint x="360" y="148" as="sourcePoint" />
            <mxPoint x="370" y="148" as="targetPoint" />
          </mxGeometry>
        </mxCell>
        <mxCell id="3f9o9FAvJz_zB1DB4lKE-59" style="edgeStyle=orthogonalEdgeStyle;rounded=0;orthogonalLoop=1;jettySize=auto;html=1;endArrow=none;endFill=0;" edge="1" parent="1">
          <mxGeometry relative="1" as="geometry">
            <mxPoint x="378" y="188" as="targetPoint" />
            <mxPoint x="370" y="188" as="sourcePoint" />
          </mxGeometry>
        </mxCell>
        <mxCell id="3f9o9FAvJz_zB1DB4lKE-60" value="" style="endArrow=none;html=1;rounded=0;" edge="1" parent="1">
          <mxGeometry width="50" height="50" relative="1" as="geometry">
            <mxPoint x="378" y="196" as="sourcePoint" />
            <mxPoint x="388" y="196" as="targetPoint" />
          </mxGeometry>
        </mxCell>
        <mxCell id="3f9o9FAvJz_zB1DB4lKE-61" value="" style="endArrow=none;html=1;rounded=0;" edge="1" parent="1">
          <mxGeometry width="50" height="50" relative="1" as="geometry">
            <mxPoint x="360" y="196" as="sourcePoint" />
            <mxPoint x="370" y="196" as="targetPoint" />
          </mxGeometry>
        </mxCell>
        <mxCell id="3f9o9FAvJz_zB1DB4lKE-62" value="" style="endArrow=none;html=1;rounded=0;" edge="1" parent="1">
          <mxGeometry width="50" height="50" relative="1" as="geometry">
            <mxPoint x="360" y="160" as="sourcePoint" />
            <mxPoint x="360" y="120" as="targetPoint" />
          </mxGeometry>
        </mxCell>
        <mxCell id="3f9o9FAvJz_zB1DB4lKE-63" value="" style="endArrow=none;html=1;rounded=0;" edge="1" parent="1">
          <mxGeometry width="50" height="50" relative="1" as="geometry">
            <mxPoint x="370" y="160" as="sourcePoint" />
            <mxPoint x="370" y="120" as="targetPoint" />
          </mxGeometry>
        </mxCell>
        <mxCell id="3f9o9FAvJz_zB1DB4lKE-64" value="" style="endArrow=none;html=1;rounded=0;" edge="1" parent="1">
          <mxGeometry width="50" height="50" relative="1" as="geometry">
            <mxPoint x="370" y="160" as="sourcePoint" />
            <mxPoint x="360" y="160" as="targetPoint" />
          </mxGeometry>
        </mxCell>
        <mxCell id="3f9o9FAvJz_zB1DB4lKE-65" value="" style="endArrow=none;html=1;rounded=0;" edge="1" parent="1">
          <mxGeometry width="50" height="50" relative="1" as="geometry">
            <mxPoint x="370" y="120" as="sourcePoint" />
            <mxPoint x="360" y="120" as="targetPoint" />
          </mxGeometry>
        </mxCell>
        <mxCell id="3f9o9FAvJz_zB1DB4lKE-66" value="" style="endArrow=none;html=1;rounded=0;" edge="1" parent="1">
          <mxGeometry width="50" height="50" relative="1" as="geometry">
            <mxPoint x="360" y="132" as="sourcePoint" />
            <mxPoint x="370" y="132" as="targetPoint" />
          </mxGeometry>
        </mxCell>
        <mxCell id="3f9o9FAvJz_zB1DB4lKE-67" value="" style="endArrow=none;html=1;rounded=0;" edge="1" parent="1">
          <mxGeometry width="50" height="50" relative="1" as="geometry">
            <mxPoint x="360" y="156" as="sourcePoint" />
            <mxPoint x="370" y="156" as="targetPoint" />
          </mxGeometry>
        </mxCell>
        <mxCell id="3f9o9FAvJz_zB1DB4lKE-68" value="" style="endArrow=none;html=1;rounded=0;" edge="1" parent="1">
          <mxGeometry width="50" height="50" relative="1" as="geometry">
            <mxPoint x="360" y="124" as="sourcePoint" />
            <mxPoint x="370" y="124" as="targetPoint" />
          </mxGeometry>
        </mxCell>
        <mxCell id="3f9o9FAvJz_zB1DB4lKE-69" value="" style="endArrow=none;html=1;rounded=0;" edge="1" parent="1">
          <mxGeometry width="50" height="50" relative="1" as="geometry">
            <mxPoint x="360" y="148" as="sourcePoint" />
            <mxPoint x="370" y="148" as="targetPoint" />
          </mxGeometry>
        </mxCell>
        <mxCell id="3f9o9FAvJz_zB1DB4lKE-70" value="" style="endArrow=none;html=1;rounded=0;" edge="1" parent="1">
          <mxGeometry width="50" height="50" relative="1" as="geometry">
            <mxPoint x="378" y="256" as="sourcePoint" />
            <mxPoint x="378" y="216" as="targetPoint" />
          </mxGeometry>
        </mxCell>
        <mxCell id="3f9o9FAvJz_zB1DB4lKE-71" value="" style="endArrow=none;html=1;rounded=0;" edge="1" parent="1">
          <mxGeometry width="50" height="50" relative="1" as="geometry">
            <mxPoint x="388" y="256" as="sourcePoint" />
            <mxPoint x="388" y="216" as="targetPoint" />
          </mxGeometry>
        </mxCell>
        <mxCell id="3f9o9FAvJz_zB1DB4lKE-72" value="" style="endArrow=none;html=1;rounded=0;" edge="1" parent="1">
          <mxGeometry width="50" height="50" relative="1" as="geometry">
            <mxPoint x="388" y="256" as="sourcePoint" />
            <mxPoint x="378" y="256" as="targetPoint" />
          </mxGeometry>
        </mxCell>
        <mxCell id="3f9o9FAvJz_zB1DB4lKE-73" value="" style="endArrow=none;html=1;rounded=0;" edge="1" parent="1">
          <mxGeometry width="50" height="50" relative="1" as="geometry">
            <mxPoint x="388" y="216" as="sourcePoint" />
            <mxPoint x="378" y="216" as="targetPoint" />
          </mxGeometry>
        </mxCell>
        <mxCell id="3f9o9FAvJz_zB1DB4lKE-74" value="" style="endArrow=none;html=1;rounded=0;" edge="1" parent="1">
          <mxGeometry width="50" height="50" relative="1" as="geometry">
            <mxPoint x="378" y="228" as="sourcePoint" />
            <mxPoint x="388" y="228" as="targetPoint" />
          </mxGeometry>
        </mxCell>
        <mxCell id="3f9o9FAvJz_zB1DB4lKE-75" value="" style="endArrow=none;html=1;rounded=0;" edge="1" parent="1">
          <mxGeometry width="50" height="50" relative="1" as="geometry">
            <mxPoint x="378" y="252" as="sourcePoint" />
            <mxPoint x="388" y="252" as="targetPoint" />
          </mxGeometry>
        </mxCell>
        <mxCell id="3f9o9FAvJz_zB1DB4lKE-76" value="" style="endArrow=none;html=1;rounded=0;" edge="1" parent="1">
          <mxGeometry width="50" height="50" relative="1" as="geometry">
            <mxPoint x="378" y="220" as="sourcePoint" />
            <mxPoint x="388" y="220" as="targetPoint" />
          </mxGeometry>
        </mxCell>
        <mxCell id="3f9o9FAvJz_zB1DB4lKE-77" value="" style="endArrow=none;html=1;rounded=0;" edge="1" parent="1">
          <mxGeometry width="50" height="50" relative="1" as="geometry">
            <mxPoint x="378" y="244" as="sourcePoint" />
            <mxPoint x="388" y="244" as="targetPoint" />
          </mxGeometry>
        </mxCell>
        <mxCell id="3f9o9FAvJz_zB1DB4lKE-78" value="&lt;span style=&quot;font-size: 8px;&quot;&gt;$$J_A,b_A$$&lt;/span&gt;" style="text;html=1;align=center;verticalAlign=middle;whiteSpace=wrap;rounded=0;" vertex="1" parent="1">
          <mxGeometry x="252" y="160" width="40" height="16" as="geometry" />
        </mxCell>
        <mxCell id="3f9o9FAvJz_zB1DB4lKE-79" value="&lt;span style=&quot;font-size: 8px;&quot;&gt;$$N_1$$&lt;/span&gt;" style="text;html=1;align=center;verticalAlign=middle;whiteSpace=wrap;rounded=0;" vertex="1" parent="1">
          <mxGeometry x="370" y="144" width="18" height="16" as="geometry" />
        </mxCell>
        <mxCell id="3f9o9FAvJz_zB1DB4lKE-80" value="&lt;span style=&quot;font-size: 8px;&quot;&gt;$$N_2$$&lt;/span&gt;" style="text;html=1;align=center;verticalAlign=middle;whiteSpace=wrap;rounded=0;" vertex="1" parent="1">
          <mxGeometry x="342" y="192" width="18" height="16" as="geometry" />
        </mxCell>
        <mxCell id="3f9o9FAvJz_zB1DB4lKE-81" value="&lt;span style=&quot;font-size: 8px;&quot;&gt;$$N_4$$&lt;/span&gt;" style="text;html=1;align=center;verticalAlign=middle;whiteSpace=wrap;rounded=0;" vertex="1" parent="1">
          <mxGeometry x="388" y="240" width="18" height="16" as="geometry" />
        </mxCell>
        <mxCell id="3f9o9FAvJz_zB1DB4lKE-82" value="&lt;span style=&quot;font-size: 8px;&quot;&gt;$$N_3$$&lt;/span&gt;" style="text;html=1;align=center;verticalAlign=middle;whiteSpace=wrap;rounded=0;" vertex="1" parent="1">
          <mxGeometry x="388" y="192" width="18" height="16" as="geometry" />
        </mxCell>
        <mxCell id="3f9o9FAvJz_zB1DB4lKE-83" value="" style="shape=cylinder3;whiteSpace=wrap;html=1;boundedLbl=1;backgroundOutline=1;size=4.776863539514466;rotation=-90;" vertex="1" parent="1">
          <mxGeometry x="442" y="219.5" width="14" height="33" as="geometry" />
        </mxCell>
        <mxCell id="3f9o9FAvJz_zB1DB4lKE-85" value="&lt;span style=&quot;font-size: 8px;&quot;&gt;$$J_L$$&lt;/span&gt;" style="text;html=1;align=center;verticalAlign=middle;whiteSpace=wrap;rounded=0;" vertex="1" parent="1">
          <mxGeometry x="440" y="244" width="18" height="12" as="geometry" />
        </mxCell>
        <mxCell id="3f9o9FAvJz_zB1DB4lKE-86" value="" style="endArrow=none;html=1;rounded=0;entryX=0.5;entryY=0.106;entryDx=0;entryDy=0;entryPerimeter=0;" edge="1" parent="1" target="3f9o9FAvJz_zB1DB4lKE-83">
          <mxGeometry width="50" height="50" relative="1" as="geometry">
            <mxPoint x="388" y="236" as="sourcePoint" />
            <mxPoint x="420" y="236" as="targetPoint" />
          </mxGeometry>
        </mxCell>
        <mxCell id="3f9o9FAvJz_zB1DB4lKE-87" value="" style="endArrow=none;html=1;rounded=0;exitX=0.5;exitY=1;exitDx=0;exitDy=0;exitPerimeter=0;" edge="1" parent="1" source="3f9o9FAvJz_zB1DB4lKE-83">
          <mxGeometry width="50" height="50" relative="1" as="geometry">
            <mxPoint x="454" y="284" as="sourcePoint" />
            <mxPoint x="478" y="236" as="targetPoint" />
          </mxGeometry>
        </mxCell>
        <mxCell id="3f9o9FAvJz_zB1DB4lKE-88" value="" style="endArrow=none;html=1;rounded=0;" edge="1" parent="1">
          <mxGeometry width="50" height="50" relative="1" as="geometry">
            <mxPoint x="478" y="224" as="sourcePoint" />
            <mxPoint x="478" y="248" as="targetPoint" />
          </mxGeometry>
        </mxCell>
        <mxCell id="3f9o9FAvJz_zB1DB4lKE-89" value="" style="endArrow=none;html=1;rounded=0;" edge="1" parent="1">
          <mxGeometry width="50" height="50" relative="1" as="geometry">
            <mxPoint x="486" y="228" as="sourcePoint" />
            <mxPoint x="486" y="244" as="targetPoint" />
          </mxGeometry>
        </mxCell>
        <mxCell id="3f9o9FAvJz_zB1DB4lKE-90" value="" style="endArrow=none;html=1;rounded=0;" edge="1" parent="1">
          <mxGeometry width="50" height="50" relative="1" as="geometry">
            <mxPoint x="494" y="248" as="sourcePoint" />
            <mxPoint x="478" y="248" as="targetPoint" />
          </mxGeometry>
        </mxCell>
        <mxCell id="3f9o9FAvJz_zB1DB4lKE-91" value="" style="endArrow=none;html=1;rounded=0;" edge="1" parent="1">
          <mxGeometry width="50" height="50" relative="1" as="geometry">
            <mxPoint x="494" y="224" as="sourcePoint" />
            <mxPoint x="478" y="224" as="targetPoint" />
          </mxGeometry>
        </mxCell>
        <mxCell id="3f9o9FAvJz_zB1DB4lKE-92" value="" style="endArrow=none;html=1;rounded=0;" edge="1" parent="1">
          <mxGeometry width="50" height="50" relative="1" as="geometry">
            <mxPoint x="486" y="236" as="sourcePoint" />
            <mxPoint x="510" y="236" as="targetPoint" />
          </mxGeometry>
        </mxCell>
        <mxCell id="3f9o9FAvJz_zB1DB4lKE-93" value="" style="endArrow=none;html=1;rounded=0;" edge="1" parent="1">
          <mxGeometry width="50" height="50" relative="1" as="geometry">
            <mxPoint x="510" y="256" as="sourcePoint" />
            <mxPoint x="510" y="216" as="targetPoint" />
          </mxGeometry>
        </mxCell>
        <mxCell id="3f9o9FAvJz_zB1DB4lKE-94" value="" style="endArrow=none;html=1;rounded=0;" edge="1" parent="1">
          <mxGeometry width="50" height="50" relative="1" as="geometry">
            <mxPoint x="514" y="220" as="sourcePoint" />
            <mxPoint x="510" y="216" as="targetPoint" />
          </mxGeometry>
        </mxCell>
        <mxCell id="3f9o9FAvJz_zB1DB4lKE-95" value="" style="endArrow=none;html=1;rounded=0;" edge="1" parent="1">
          <mxGeometry width="50" height="50" relative="1" as="geometry">
            <mxPoint x="514" y="228" as="sourcePoint" />
            <mxPoint x="510" y="224" as="targetPoint" />
            <Array as="points" />
          </mxGeometry>
        </mxCell>
        <mxCell id="3f9o9FAvJz_zB1DB4lKE-96" value="" style="endArrow=none;html=1;rounded=0;" edge="1" parent="1">
          <mxGeometry width="50" height="50" relative="1" as="geometry">
            <mxPoint x="514" y="236" as="sourcePoint" />
            <mxPoint x="510" y="232" as="targetPoint" />
          </mxGeometry>
        </mxCell>
        <mxCell id="3f9o9FAvJz_zB1DB4lKE-97" value="" style="endArrow=none;html=1;rounded=0;" edge="1" parent="1">
          <mxGeometry width="50" height="50" relative="1" as="geometry">
            <mxPoint x="514" y="256" as="sourcePoint" />
            <mxPoint x="510" y="252" as="targetPoint" />
          </mxGeometry>
        </mxCell>
        <mxCell id="3f9o9FAvJz_zB1DB4lKE-98" value="" style="endArrow=none;html=1;rounded=0;" edge="1" parent="1">
          <mxGeometry width="50" height="50" relative="1" as="geometry">
            <mxPoint x="514" y="244" as="sourcePoint" />
            <mxPoint x="510" y="240" as="targetPoint" />
          </mxGeometry>
        </mxCell>
        <mxCell id="3f9o9FAvJz_zB1DB4lKE-99" value="" style="endArrow=none;html=1;rounded=0;" edge="1" parent="1">
          <mxGeometry width="50" height="50" relative="1" as="geometry">
            <mxPoint x="514" y="252" as="sourcePoint" />
            <mxPoint x="510" y="248" as="targetPoint" />
          </mxGeometry>
        </mxCell>
        <mxCell id="3f9o9FAvJz_zB1DB4lKE-100" value="" style="endArrow=none;html=1;rounded=0;" edge="1" parent="1">
          <mxGeometry width="50" height="50" relative="1" as="geometry">
            <mxPoint x="514" y="248" as="sourcePoint" />
            <mxPoint x="510" y="244" as="targetPoint" />
          </mxGeometry>
        </mxCell>
        <mxCell id="3f9o9FAvJz_zB1DB4lKE-101" value="" style="endArrow=none;html=1;rounded=0;" edge="1" parent="1">
          <mxGeometry width="50" height="50" relative="1" as="geometry">
            <mxPoint x="514" y="223.5" as="sourcePoint" />
            <mxPoint x="510" y="219.5" as="targetPoint" />
          </mxGeometry>
        </mxCell>
        <mxCell id="3f9o9FAvJz_zB1DB4lKE-102" value="" style="endArrow=none;html=1;rounded=0;" edge="1" parent="1">
          <mxGeometry width="50" height="50" relative="1" as="geometry">
            <mxPoint x="514" y="232" as="sourcePoint" />
            <mxPoint x="510" y="228" as="targetPoint" />
          </mxGeometry>
        </mxCell>
        <mxCell id="3f9o9FAvJz_zB1DB4lKE-103" value="" style="endArrow=none;html=1;rounded=0;" edge="1" parent="1">
          <mxGeometry width="50" height="50" relative="1" as="geometry">
            <mxPoint x="514" y="240" as="sourcePoint" />
            <mxPoint x="510" y="236" as="targetPoint" />
          </mxGeometry>
        </mxCell>
        <mxCell id="3f9o9FAvJz_zB1DB4lKE-104" value="&lt;span style=&quot;font-size: 8px;&quot;&gt;$$b_L$$&lt;/span&gt;" style="text;html=1;align=center;verticalAlign=middle;whiteSpace=wrap;rounded=0;" vertex="1" parent="1">
          <mxGeometry x="476" y="207.5" width="18" height="12" as="geometry" />
        </mxCell>
        <mxCell id="3f9o9FAvJz_zB1DB4lKE-108" value="" style="curved=1;endArrow=classic;html=1;rounded=0;endSize=1;" edge="1" parent="1">
          <mxGeometry width="50" height="50" relative="1" as="geometry">
            <mxPoint x="344" y="144" as="sourcePoint" />
            <mxPoint x="344" y="136" as="targetPoint" />
            <Array as="points">
              <mxPoint x="344" y="152" />
              <mxPoint x="328" y="152" />
              <mxPoint x="328" y="128" />
              <mxPoint x="344" y="128" />
            </Array>
          </mxGeometry>
        </mxCell>
        <mxCell id="3f9o9FAvJz_zB1DB4lKE-109" value="" style="curved=1;endArrow=classic;html=1;rounded=0;endSize=1;" edge="1" parent="1">
          <mxGeometry width="50" height="50" relative="1" as="geometry">
            <mxPoint x="409" y="240" as="sourcePoint" />
            <mxPoint x="409" y="232" as="targetPoint" />
            <Array as="points">
              <mxPoint x="409" y="248" />
              <mxPoint x="425" y="248" />
              <mxPoint x="425" y="224" />
              <mxPoint x="409" y="224" />
            </Array>
          </mxGeometry>
        </mxCell>
        <mxCell id="3f9o9FAvJz_zB1DB4lKE-113" value="$$\theta_m(t)$$" style="text;html=1;align=center;verticalAlign=middle;whiteSpace=wrap;rounded=0;fontSize=8;" vertex="1" parent="1">
          <mxGeometry x="328" y="110" width="24" height="16" as="geometry" />
        </mxCell>
        <mxCell id="3f9o9FAvJz_zB1DB4lKE-114" value="$$\theta_L(t)$$" style="text;html=1;align=center;verticalAlign=middle;whiteSpace=wrap;rounded=0;fontSize=8;" vertex="1" parent="1">
          <mxGeometry x="406" y="207.5" width="24" height="16" as="geometry" />
        </mxCell>
      </root>
    </mxGraphModel>
  </diagram>
</mxfile>
